<?xml version="1.0" standalone="no"?>

<svg version="1.0" xmlns="http://www.w3.org/2000/svg"
 width="1500.000000pt" height="1500.000000pt" viewBox="0 0 1500.000000 1500.000000"
 preserveAspectRatio="xMidYMid meet">

<g transform="translate(0.000000,1500.000000) scale(0.100000,-0.100000)"
fill="#000000" stroke="none">
<path d="M7260 11975 c0 -33 -2 -35 -34 -35 -18 0 -54 -3 -79 -6 -44 -6 -45
-6 -52 25 -4 20 -13 31 -23 31 -9 -1 -111 -20 -227 -44 l-210 -42 0 -34 c0
-34 -1 -34 -74 -57 -41 -12 -75 -21 -76 -20 0 1 -6 15 -13 30 -7 16 -16 27
-20 25 -358 -144 -421 -174 -415 -193 13 -41 7 -50 -52 -82 -33 -18 -65 -33
-70 -33 -6 0 -17 11 -26 25 l-15 25 -179 -120 c-99 -67 -186 -127 -193 -134
-12 -12 -11 -18 2 -38 16 -25 16 -26 -46 -76 l-62 -51 -23 21 -24 22 -164
-164 -164 -164 20 -22 c24 -25 23 -27 -35 -99 -22 -27 -41 -52 -42 -54 -2 -1
-13 4 -26 13 -12 9 -26 16 -30 16 -4 0 -65 -86 -135 -191 l-127 -191 27 -20
27 -20 -37 -69 c-38 -69 -42 -72 -84 -55 -13 6 -32 -32 -102 -203 -48 -115
-87 -213 -87 -219 0 -5 11 -13 25 -16 30 -8 30 -11 4 -99 l-21 -69 -33 5 -33
5 -42 -216 c-22 -119 -43 -223 -45 -229 -3 -7 9 -16 28 -21 35 -9 36 -16 21
-129 -5 -41 -7 -43 -40 -43 l-34 0 2 -232 3 -233 30 -3 c16 -2 32 -8 36 -13 3
-5 63 13 135 40 248 94 496 170 794 246 l205 52 8 99 c18 223 90 487 193 704
457 962 1556 1421 2560 1069 211 -74 459 -215 629 -359 173 -147 355 -359 456
-532 157 -269 265 -599 285 -875 4 -50 9 -95 13 -101 3 -5 76 -26 161 -47 283
-70 567 -156 831 -255 74 -27 135 -45 137 -40 2 6 19 10 38 10 l34 0 0 235 0
235 -34 0 c-33 0 -33 1 -40 53 -10 91 -8 117 12 117 43 1 43 8 -3 240 -25 124
-45 226 -45 227 0 1 -15 -1 -33 -4 l-33 -5 -23 77 c-13 42 -21 77 -20 79 2 1
16 7 31 13 l26 12 -89 213 c-55 132 -93 212 -101 211 -7 -1 -22 -4 -33 -8 -17
-4 -26 6 -57 64 l-37 70 27 20 26 19 -127 191 c-70 105 -131 191 -135 191 -4
0 -17 -7 -29 -15 -21 -15 -24 -13 -72 47 l-51 62 20 21 c11 12 20 26 20 31 0
12 -312 324 -324 324 -6 0 -19 -9 -30 -19 -21 -19 -21 -19 -83 31 l-62 51 19
27 19 27 -194 130 -195 131 -19 -26 -20 -27 -68 37 c-67 36 -71 42 -58 83 5
18 -16 29 -201 105 -113 47 -210 86 -214 88 -4 1 -13 -11 -20 -28 -7 -16 -13
-30 -14 -30 0 0 -35 11 -76 24 -74 22 -75 23 -75 56 l0 34 -210 42 c-115 24
-218 43 -227 44 -13 0 -18 -8 -18 -24 0 -14 -4 -27 -9 -30 -5 -3 -43 -3 -85 1
l-76 6 0 33 0 34 -235 0 -235 0 0 -35z"/>
<path d="M6980 10555 c-282 -77 -580 -250 -803 -464 -110 -106 -303 -354 -262
-337 36 15 185 19 244 6 185 -40 333 -177 397 -370 28 -85 25 -225 -8 -320
-15 -41 -25 -76 -24 -78 2 -1 79 5 172 13 326 29 774 40 1111 27 169 -7 370
-17 446 -23 75 -7 139 -10 141 -8 3 2 -2 33 -11 69 -33 139 2 300 93 427 139
195 412 267 638 169 l38 -17 -23 38 c-45 74 -120 184 -166 240 -230 288 -591
526 -952 628 -49 14 -92 25 -95 25 -2 0 11 -26 30 -57 54 -91 69 -151 68 -283
0 -132 -16 -186 -86 -291 -105 -157 -311 -249 -497 -222 -105 16 -174 44 -252
103 -77 57 -147 153 -181 245 -17 47 -22 83 -22 170 -1 125 15 190 70 281 18
30 29 54 26 53 -4 0 -45 -11 -92 -24z"/>
<path d="M5610 8903 c0 -39 2 -43 24 -43 37 0 38 13 6 51 l-29 34 -1 -42z"/>
<path d="M9347 8911 c-23 -40 -21 -51 8 -51 23 0 25 4 25 40 0 47 -9 51 -33
11z"/>
<path d="M7390 7053 c-14 -2 -50 -13 -82 -24 -215 -75 -360 -258 -428 -540
-35 -148 -21 -273 45 -398 20 -36 96 -145 171 -241 74 -96 142 -188 151 -205
21 -40 43 -122 43 -163 0 -51 -30 -182 -51 -224 -33 -65 -111 -88 -163 -47
-36 28 -34 75 9 260 19 82 35 154 35 159 0 6 -83 10 -220 10 -121 0 -220 -2
-220 -4 0 -3 -16 -78 -36 -168 -77 -347 -51 -521 90 -616 83 -55 140 -67 321
-67 146 1 166 3 231 26 153 56 259 158 344 334 116 237 161 493 115 650 -34
118 -67 170 -262 412 -67 83 -131 170 -143 193 -23 45 -29 126 -12 171 17 44
68 79 116 79 75 0 91 -42 61 -165 -8 -33 -14 -66 -15 -72 0 -10 52 -13 229
-13 l228 0 14 78 c8 42 14 131 13 197 0 99 -4 130 -22 175 -59 149 -183 211
-417 209 -66 -1 -131 -4 -145 -6z"/>
<path d="M3992 5942 c-139 -603 -255 -1107 -258 -1120 l-6 -22 218 2 219 3
257 1115 c141 613 257 1116 258 1118 0 1 -98 2 -217 2 l-218 0 -253 -1098z"/>
<path d="M5050 5938 c-139 -607 -256 -1111 -258 -1120 -4 -17 11 -18 215 -18
l220 0 124 540 c68 297 126 530 128 518 4 -26 -16 -772 -25 -945 l-6 -113 220
0 221 0 10 38 c6 20 121 519 256 1107 135 589 248 1076 250 1083 3 9 -44 12
-214 12 l-217 0 -120 -516 c-65 -283 -121 -508 -122 -498 -4 18 25 826 33 942
l6 72 -234 0 -233 0 -254 -1102z"/>
<path d="M8490 5922 l-366 -1117 215 -3 c118 -1 216 -1 218 2 2 2 28 82 56
177 l53 174 137 3 138 3 -6 -33 c-8 -50 -45 -308 -45 -319 0 -6 81 -8 212 -7
l213 3 147 1085 c80 597 148 1100 150 1118 l4 32 -381 0 -380 0 -365 -1118z
m660 730 c0 -4 -36 -260 -80 -567 -44 -307 -80 -560 -80 -562 0 -2 -45 -3
-101 -3 -100 0 -101 0 -95 23 5 22 247 825 307 1020 16 53 34 97 39 97 6 0 10
-4 10 -8z"/>
<path d="M10405 7018 c-75 -320 -505 -2197 -505 -2205 0 -10 51 -13 223 -13
l223 0 93 403 c51 221 104 450 118 510 l25 107 212 0 212 0 47 208 c26 114 47
210 47 215 0 4 -95 7 -211 7 -165 0 -210 3 -206 13 2 6 22 87 42 179 l39 168
224 2 225 3 43 190 c24 105 46 200 49 213 l5 22 -450 0 -450 0 -5 -22z"/>
<path d="M6751 3928 c-124 -22 -204 -151 -156 -252 19 -40 53 -61 143 -91 68
-22 95 -50 88 -89 -13 -63 -74 -92 -167 -78 l-54 7 -3 43 c-3 39 -5 42 -32 42
-30 0 -27 9 -46 -119 l-5 -39 53 -13 c199 -49 346 27 356 184 4 56 1 66 -22
94 -17 20 -52 41 -99 59 -39 16 -82 34 -94 42 -31 20 -30 66 2 98 22 22 32 25
93 22 l67 -3 5 -40 c5 -36 8 -40 37 -43 31 -3 31 -3 38 55 12 101 14 96 -30
108 -58 17 -124 22 -174 13z"/>
<path d="M7435 3925 c-108 -28 -156 -136 -110 -247 5 -12 -1 -21 -22 -31 -96
-51 -141 -173 -90 -247 54 -82 162 -98 281 -42 l64 30 28 -29 c25 -26 35 -29
87 -29 67 0 68 -4 -5 82 l-37 43 35 70 c19 39 37 85 40 103 6 31 6 32 -29 32
-40 0 -44 -5 -69 -74 -10 -28 -21 -53 -25 -57 -8 -8 -144 150 -170 195 -21 37
-15 75 16 107 16 16 39 29 51 29 21 0 63 -35 71 -59 4 -10 16 -12 48 -6 40 7
42 9 36 34 -20 83 -100 122 -200 96z m3 -392 c34 -40 62 -77 62 -82 0 -32
-126 -55 -170 -31 -26 14 -41 63 -30 101 9 32 58 92 70 87 4 -2 34 -35 68 -75z"/>
<path d="M9132 3929 c-29 -4 -77 -19 -106 -33 -171 -84 -239 -321 -136 -472
68 -97 227 -128 358 -69 123 55 202 181 202 319 0 101 -51 190 -132 232 -41
21 -120 31 -186 23z m105 -100 c135 -51 132 -286 -5 -379 -49 -34 -166 -36
-209 -4 -65 48 -86 149 -54 247 36 109 166 175 268 136z"/>
<path d="M10324 3929 c-245 -31 -383 -347 -227 -520 45 -49 77 -67 148 -80
146 -27 299 54 364 191 22 47 26 68 26 151 0 89 -2 99 -30 144 -55 88 -157
130 -281 114z m125 -109 c59 -29 86 -92 78 -178 -8 -85 -41 -148 -96 -187 -38
-27 -51 -30 -116 -30 -84 0 -118 17 -147 76 -40 77 -12 226 53 286 59 54 159
69 228 33z"/>
<path d="M11481 3928 c-124 -22 -204 -151 -156 -252 19 -40 53 -61 143 -91 68
-22 95 -50 88 -89 -13 -63 -74 -92 -167 -78 l-54 7 -3 43 c-3 39 -5 42 -32 42
-30 0 -27 9 -46 -119 l-5 -39 53 -13 c199 -49 346 27 356 184 4 56 1 66 -22
94 -17 20 -52 41 -99 59 -39 16 -82 34 -94 42 -31 20 -30 66 2 98 22 22 32 25
93 22 l67 -3 5 -40 c5 -36 8 -40 37 -43 31 -3 31 -3 38 55 12 101 14 96 -30
108 -58 17 -124 22 -174 13z"/>
<path d="M2956 3908 c-3 -13 -8 -44 -11 -70 l-6 -48 31 0 c23 0 33 6 40 25 9
23 15 25 71 25 l61 0 -6 -37 c-8 -49 -46 -363 -46 -378 0 -6 -15 -15 -32 -20
-27 -8 -34 -16 -36 -42 l-3 -33 114 0 115 0 6 26 c8 30 -8 54 -35 54 -23 0
-24 -14 6 220 14 107 25 198 25 203 0 4 27 7 59 7 54 0 60 -2 63 -22 2 -17 11
-24 34 -26 30 -3 31 -1 38 44 3 26 6 57 6 70 l0 24 -245 0 -245 0 -4 -22z"/>
<path d="M3557 3903 c-6 -32 7 -53 34 -53 11 0 19 -5 19 -10 0 -16 -51 -425
-53 -425 -58 -18 -62 -21 -65 -53 l-3 -32 115 0 c115 0 116 0 122 25 7 30 -10
55 -38 55 -17 0 -18 5 -13 53 11 96 12 97 50 97 33 0 36 -3 84 -92 75 -142 71
-138 145 -138 61 0 64 1 71 27 7 30 -13 53 -47 53 -10 0 -18 3 -18 8 0 4 -22
44 -49 89 l-48 82 28 11 c39 17 94 79 109 125 16 50 7 111 -22 142 -48 51 -71
57 -249 61 l-166 4 -6 -29z m318 -88 c31 -31 32 -72 2 -116 -24 -36 -74 -57
-139 -58 -43 -1 -42 -8 -27 111 l12 88 64 0 c55 0 67 -4 88 -25z"/>
<path d="M4347 3828 c-30 -57 -90 -172 -133 -256 -62 -122 -84 -157 -109 -169
-34 -18 -45 -31 -45 -55 0 -16 11 -18 99 -18 93 0 100 1 106 21 5 13 1 27 -8
36 -14 14 -13 20 6 60 l21 44 120 -3 120 -3 10 -39 c7 -32 6 -41 -7 -51 -9 -6
-19 -23 -23 -38 l-6 -28 103 3 c104 3 104 3 107 29 2 21 -3 29 -26 38 -28 12
-32 21 -99 269 l-69 257 -56 3 -56 3 -55 -103z m121 -115 c12 -54 25 -108 28
-120 6 -23 5 -23 -85 -23 l-90 0 57 119 c31 66 59 120 62 120 4 1 16 -43 28
-96z"/>
<path d="M4816 3915 c-14 -37 -7 -55 25 -62 27 -5 30 -9 26 -32 -3 -14 -15
-112 -28 -217 l-22 -191 -31 -9 c-24 -7 -32 -16 -37 -42 l-7 -34 187 4 c177 3
189 4 242 29 104 49 168 136 191 258 22 120 -25 226 -124 278 -51 26 -60 28
-234 31 -162 3 -182 2 -188 -13z m373 -104 c43 -31 61 -75 61 -153 0 -105 -50
-188 -132 -223 -38 -15 -188 -22 -188 -7 0 4 11 95 25 202 14 107 25 199 25
203 0 5 39 7 88 5 72 -2 93 -7 121 -27z"/>
<path d="M5470 3895 c0 -34 3 -38 45 -50 7 -2 2 -74 -15 -216 l-25 -213 -32
-9 c-29 -9 -42 -29 -43 -64 0 -10 50 -13 219 -13 l219 0 6 28 c3 15 8 51 12
80 l6 53 -33 -3 c-28 -2 -34 -8 -41 -35 l-9 -33 -95 0 -96 0 6 68 c11 109 4
102 115 102 l99 0 6 31 c3 17 6 35 6 40 0 5 -46 9 -101 9 l-101 0 6 58 c4 31
9 69 12 85 l6 27 93 0 94 0 3 -32 c2 -26 8 -34 27 -36 34 -5 39 4 47 86 l7 72
-222 0 -221 0 0 -35z"/>
<path d="M6017 3903 c-6 -32 7 -53 34 -53 11 0 19 -5 19 -10 0 -16 -51 -425
-53 -425 -58 -18 -62 -21 -65 -53 l-3 -32 115 0 c115 0 116 0 122 25 7 30 -10
55 -38 55 -17 0 -18 5 -13 53 11 96 12 97 50 97 33 0 36 -3 84 -92 75 -142 71
-138 145 -138 61 0 64 1 71 27 7 30 -13 53 -47 53 -10 0 -18 3 -18 8 0 4 -22
44 -49 89 l-48 82 28 11 c39 17 94 79 109 125 16 50 7 111 -22 142 -48 51 -71
57 -249 61 l-166 4 -6 -29z m318 -88 c31 -31 32 -72 2 -116 -24 -36 -74 -57
-139 -58 -43 -1 -42 -8 -27 111 l12 88 64 0 c55 0 67 -4 88 -25z"/>
<path d="M8032 3893 c2 -31 7 -39 26 -41 27 -4 27 -2 2 -211 -29 -236 -28
-231 -50 -231 -26 0 -50 -27 -50 -56 l0 -25 118 3 117 3 3 29 c4 31 -10 46
-45 46 -13 0 -23 3 -23 8 0 4 9 77 20 162 11 85 20 162 20 170 1 8 33 -61 71
-155 39 -93 76 -176 81 -182 16 -20 52 -15 75 10 12 12 67 92 122 177 56 86
101 145 101 134 0 -21 -26 -235 -35 -291 -5 -25 -11 -33 -26 -33 -37 0 -59
-19 -59 -50 l0 -30 114 0 c121 0 126 2 126 51 0 14 -9 21 -31 26 -28 5 -30 9
-25 37 3 17 15 115 27 219 21 180 23 187 44 187 27 0 41 15 47 53 l5 27 -87 0
-88 0 -131 -201 c-128 -196 -131 -200 -141 -173 -27 73 -144 350 -153 362 -6
8 -38 12 -94 12 l-84 0 3 -37z"/>
<path d="M9495 3883 c-3 -27 -8 -58 -11 -70 -4 -20 0 -23 30 -23 28 0 35 4 40
25 6 23 11 25 66 25 41 0 60 -4 60 -12 0 -22 -50 -411 -53 -413 -1 0 -15 -5
-32 -11 -24 -7 -31 -16 -33 -42 l-3 -33 118 3 118 3 3 33 c3 29 0 33 -28 39
-29 5 -31 8 -26 37 3 17 15 113 27 214 l23 183 60 -3 c55 -3 61 -5 64 -25 3
-18 10 -23 32 -23 27 0 29 3 35 48 3 26 8 57 11 70 l4 22 -249 0 -250 0 -6
-47z"/>
<path d="M10747 3903 c-6 -32 7 -53 34 -53 11 0 19 -5 19 -10 0 -16 -51 -425
-53 -425 -58 -18 -62 -21 -65 -53 l-3 -32 115 0 c115 0 116 0 122 25 7 30 -10
55 -38 55 -17 0 -18 5 -13 53 11 96 12 97 50 97 33 0 36 -3 84 -92 75 -142 71
-138 145 -138 61 0 64 1 71 27 7 30 -13 53 -47 53 -10 0 -18 3 -18 8 0 4 -22
44 -49 89 l-48 82 28 11 c39 17 94 79 109 125 16 50 7 111 -22 142 -48 51 -71
57 -249 61 l-166 4 -6 -29z m318 -88 c31 -31 32 -72 2 -116 -24 -36 -74 -57
-139 -58 -43 -1 -42 -8 -27 111 l12 88 64 0 c55 0 67 -4 88 -25z"/>
</g>
</svg>
