<svg xmlns="http://www.w3.org/2000/svg"  width="500"
    zoomAndPan="magnify" viewBox="0 0 375 374.999991" height="500"
    preserveAspectRatio="xMidYMid meet" version="1.0">
    <defs>
        <g />
        <clipPath id="1f9177db38">
            <path d="M 105 74.683594 L 270 74.683594 L 270 164 L 105 164 Z M 105 74.683594 "
                clip-rule="nonzero" />
        </clipPath>
        <clipPath id="761629d80b">
            <path
                d="M 69.667969 154.070312 L 305.140625 154.070312 L 305.140625 191.683594 L 69.667969 191.683594 Z M 69.667969 154.070312 "
                clip-rule="nonzero" />
        </clipPath>
    </defs>
    <g clip-path="url(#1f9177db38)">
        <path fill="#231f20"
            d="M 193.265625 76.367188 C 194.617188 76.464844 195.957031 76.597656 197.289062 76.761719 L 197.613281 75.113281 L 209.113281 77.410156 L 208.789062 79.046875 C 210.09375 79.410156 211.382812 79.800781 212.65625 80.222656 L 213.292969 78.683594 L 224.125 83.1875 L 223.488281 84.734375 C 224.691406 85.34375 225.882812 85.980469 227.050781 86.648438 L 227.976562 85.253906 L 237.726562 91.792969 L 236.796875 93.195312 C 237.855469 94.027344 238.898438 94.882812 239.914062 95.765625 L 241.105469 94.574219 L 249.394531 102.898438 L 248.207031 104.089844 C 249.085938 105.113281 249.941406 106.15625 250.769531 107.222656 L 252.164062 106.285156 L 258.679688 116.074219 L 257.292969 117.003906 C 257.957031 118.179688 258.59375 119.371094 259.199219 120.582031 L 260.738281 119.9375 L 265.226562 130.816406 L 263.691406 131.453125 C 264.113281 132.734375 264.503906 134.027344 264.863281 135.335938 L 266.496094 135.007812 L 268.78125 146.554688 L 267.140625 146.882812 C 267.304688 148.21875 267.4375 149.5625 267.535156 150.917969 L 269.210938 150.917969 L 269.210938 162.6875 L 267.535156 162.6875 C 267.519531 162.898438 267.503906 163.105469 267.484375 163.316406 C 245.128906 154.347656 217.417969 149.035156 187.402344 149.035156 C 157.390625 149.035156 129.679688 154.347656 107.324219 163.316406 C 107.304688 163.105469 107.289062 162.898438 107.273438 162.6875 L 105.597656 162.6875 L 105.597656 150.917969 L 107.273438 150.917969 C 107.371094 149.5625 107.503906 148.21875 107.667969 146.882812 L 106.027344 146.554688 L 108.3125 135.007812 L 109.945312 135.335938 C 110.304688 134.027344 110.695312 132.734375 111.117188 131.453125 L 109.582031 130.816406 L 114.070312 119.9375 L 115.609375 120.582031 C 116.214844 119.371094 116.851562 118.179688 117.515625 117.003906 L 116.128906 116.074219 L 122.640625 106.285156 L 124.039062 107.222656 C 124.867188 106.15625 125.722656 105.113281 126.601562 104.089844 L 125.414062 102.898438 L 133.703125 94.574219 L 134.894531 95.765625 C 135.910156 94.882812 136.953125 94.027344 138.011719 93.195312 L 137.082031 91.792969 L 146.832031 85.253906 L 147.757812 86.648438 C 148.925781 85.980469 150.113281 85.34375 151.320312 84.734375 L 150.679688 83.1875 L 161.515625 78.683594 L 162.152344 80.222656 C 163.425781 79.800781 164.714844 79.410156 166.019531 79.046875 L 165.695312 77.410156 L 177.195312 75.113281 L 177.523438 76.761719 C 178.851562 76.597656 180.191406 76.464844 181.539062 76.367188 L 181.539062 74.683594 L 193.265625 74.683594 L 193.265625 76.367188 "
            fill-opacity="1" fill-rule="evenodd" />
    </g>
    <path fill="#ffffff"
        d="M 187.40625 104.828125 C 201.699219 104.828125 214.644531 110.648438 224.015625 120.054688 C 232.902344 128.976562 238.578125 141.128906 239.136719 154.605469 C 237.644531 154.273438 236.140625 153.953125 234.625 153.644531 C 233.851562 141.785156 228.738281 131.113281 220.867188 123.210938 C 212.300781 114.613281 200.46875 109.296875 187.40625 109.296875 C 174.335938 109.296875 162.507812 114.613281 153.941406 123.210938 C 146.070312 131.113281 140.957031 141.785156 140.183594 153.644531 C 138.667969 153.953125 137.164062 154.273438 135.671875 154.605469 C 136.230469 141.128906 141.902344 128.976562 150.792969 120.054688 C 160.164062 110.648438 173.109375 104.828125 187.40625 104.828125 "
        fill-opacity="1" fill-rule="nonzero" />
    <path fill="#ffffff"
        d="M 138.761719 139.84375 C 141.007812 132.902344 148.4375 129.101562 155.351562 131.355469 C 162.265625 133.613281 166.050781 141.070312 163.804688 148.011719 C 163.546875 148.796875 163.226562 149.546875 162.847656 150.25 C 155.675781 150.960938 148.707031 151.984375 141.984375 153.285156 C 138.589844 149.882812 137.175781 144.734375 138.761719 139.84375 Z M 187.402344 105.507812 C 194.675781 105.507812 200.570312 111.425781 200.570312 118.722656 C 200.570312 126.019531 194.675781 131.941406 187.402344 131.941406 C 180.132812 131.941406 174.238281 126.019531 174.238281 118.722656 C 174.238281 111.425781 180.132812 105.507812 187.402344 105.507812 Z M 234.96875 141.335938 C 236.339844 145.570312 235.464844 150 233 153.320312 C 225.652344 151.890625 218.003906 150.796875 210.121094 150.074219 C 210.054688 149.886719 209.988281 149.695312 209.921875 149.503906 C 207.675781 142.5625 211.460938 135.105469 218.375 132.851562 C 225.292969 130.59375 232.722656 134.394531 234.96875 141.335938 "
        fill-opacity="1" fill-rule="evenodd" />
    <g clip-path="url(#761629d80b)">
        <path fill="#fe8000"
            d="M 187.402344 154.113281 C 238.15625 154.113281 282.332031 169.296875 305.140625 191.6875 C 276.347656 176.707031 234.273438 167.253906 187.402344 167.253906 C 140.535156 167.253906 98.457031 176.707031 69.667969 191.6875 C 92.476562 169.296875 136.652344 154.113281 187.402344 154.113281 "
            fill-opacity="1" fill-rule="evenodd" />
    </g>
    <g fill="#000000" fill-opacity="1">
        <g transform="translate(97.659446, 255.040207)">
            <g>
                <path
                    d="M -4.453125 0 L 8.484375 -56.125 L 19.34375 -56.125 L 6.40625 0 Z M -4.453125 0 " />
            </g>
        </g>
    </g>
    <g fill="#000000" fill-opacity="1">
        <g transform="translate(123.598297, 255.040207)">
            <g>
                <path
                    d="M -3.921875 0 L 9.015625 -56.125 L 20.578125 -56.125 L 19.53125 -29.28125 L 25.75 -56.125 L 36.59375 -56.125 L 23.65625 0 L 12.671875 0 L 13.515625 -28.09375 L 7.046875 0 Z M -3.921875 0 " />
            </g>
        </g>
    </g>
    <g fill="#000000" fill-opacity="1">
        <g transform="translate(167.242117, 255.040207)">
            <g>
                <path
                    d="M 9.28125 0.515625 C 4.175781 0.515625 0.785156 -0.742188 -0.890625 -3.265625 C -2.566406 -5.796875 -2.75 -9.867188 -1.4375 -15.484375 L -0.203125 -20.96875 L 10.84375 -20.96875 L 9.203125 -13.984375 C 8.554688 -11.191406 9.125 -9.796875 10.90625 -9.796875 C 11.90625 -9.796875 12.675781 -10.085938 13.21875 -10.671875 C 13.769531 -11.265625 14.195312 -12.257812 14.5 -13.65625 C 14.9375 -15.488281 15.066406 -17.003906 14.890625 -18.203125 C 14.722656 -19.398438 14.398438 -20.398438 13.921875 -21.203125 C 13.441406 -22.003906 12.523438 -23.257812 11.171875 -24.96875 L 7.453125 -29.796875 C 4.578125 -33.453125 3.640625 -37.503906 4.640625 -41.953125 C 5.722656 -46.742188 7.660156 -50.390625 10.453125 -52.890625 C 13.242188 -55.398438 16.75 -56.65625 20.96875 -56.65625 C 26.019531 -56.65625 29.351562 -55.3125 30.96875 -52.625 C 32.582031 -49.945312 32.710938 -45.757812 31.359375 -40.0625 L 19.921875 -40.0625 L 20.78125 -43.90625 C 20.945312 -44.644531 20.878906 -45.234375 20.578125 -45.671875 C 20.273438 -46.109375 19.753906 -46.328125 19.015625 -46.328125 C 18.140625 -46.328125 17.414062 -46.085938 16.84375 -45.609375 C 16.28125 -45.128906 15.914062 -44.476562 15.75 -43.65625 C 15.3125 -41.820312 15.921875 -39.925781 17.578125 -37.96875 L 22.671875 -31.6875 C 23.847656 -30.207031 24.785156 -28.800781 25.484375 -27.46875 C 26.179688 -26.144531 26.625 -24.578125 26.8125 -22.765625 C 27.007812 -20.960938 26.828125 -18.820312 26.265625 -16.34375 C 24.960938 -10.800781 22.96875 -6.601562 20.28125 -3.75 C 17.601562 -0.90625 13.9375 0.515625 9.28125 0.515625 Z M 9.28125 0.515625 " />
            </g>
        </g>
    </g>
    <g fill="#000000" fill-opacity="1">
        <g transform="translate(208.468643, 255.040207)">
            <g>
                <path
                    d="M -5.421875 0 L 12.9375 -56.125 L 31.953125 -56.125 L 24.375 0 L 13.71875 0 L 15.03125 -9.078125 L 8.234375 -9.078125 L 5.484375 0 Z M 11.171875 -18.03125 L 16.265625 -18.03125 L 20.3125 -46.59375 L 19.796875 -46.59375 Z M 11.171875 -18.03125 " />
            </g>
        </g>
    </g>
    <g fill="#000000" fill-opacity="1">
        <g transform="translate(251.263134, 255.040207)">
            <g>
                <path
                    d="M -3.921875 0 L 9.015625 -56.125 L 31.5 -56.125 L 29.015625 -45.21875 L 17.84375 -45.21875 L 15.75 -36.265625 L 26.328125 -36.265625 L 23.84375 -25.484375 L 13.265625 -25.484375 L 7.375 0 Z M -3.921875 0 " />
            </g>
        </g>
    </g>
    <g fill="#000000" fill-opacity="1">
        <g transform="translate(73.116995, 291.749923)">
            <g>
                <path
                    d="M 12.921875 -14.96875 L 13.25 -14.96875 L 12.8125 -11.421875 L 11.640625 -11.421875 C 11.367188 -11.421875 11.222656 -11.550781 11.203125 -11.8125 L 11.203125 -12.6875 L 8.140625 -12.6875 L 6.828125 -2.046875 C 6.910156 -2.035156 7.019531 -2.019531 7.15625 -2 C 7.289062 -1.976562 7.378906 -1.960938 7.421875 -1.953125 C 7.472656 -1.941406 7.535156 -1.925781 7.609375 -1.90625 C 7.679688 -1.882812 7.726562 -1.875 7.75 -1.875 C 7.769531 -1.875 7.796875 -1.875 7.828125 -1.875 L 7.859375 -1.859375 C 8.191406 -1.773438 8.335938 -1.5625 8.296875 -1.21875 L 8.15625 0 L 2.234375 0 L 2.390625 -1.21875 C 2.429688 -1.5625 2.628906 -1.773438 2.984375 -1.859375 C 2.992188 -1.859375 3.007812 -1.859375 3.03125 -1.859375 C 3.0625 -1.867188 3.085938 -1.875 3.109375 -1.875 C 3.128906 -1.875 3.175781 -1.882812 3.25 -1.90625 C 3.320312 -1.925781 3.382812 -1.941406 3.4375 -1.953125 C 3.476562 -1.960938 3.566406 -1.976562 3.703125 -2 C 3.835938 -2.019531 3.953125 -2.035156 4.046875 -2.046875 L 5.359375 -12.6875 L 2.296875 -12.6875 C 2.179688 -12.15625 2.113281 -11.863281 2.09375 -11.8125 C 2.007812 -11.550781 1.835938 -11.421875 1.578125 -11.421875 L 0.375 -11.421875 L 0.8125 -14.96875 Z M 12.921875 -14.96875 " />
            </g>
        </g>
    </g>
    <g fill="#000000" fill-opacity="1">
        <g transform="translate(86.756543, 291.749923)">
            <g>
                <path
                    d="M 13.5 -1.859375 C 13.820312 -1.773438 13.96875 -1.5625 13.9375 -1.21875 L 13.78125 0 L 10.984375 0 C 10.734375 0 10.535156 -0.046875 10.390625 -0.140625 C 10.242188 -0.234375 10.117188 -0.375 10.015625 -0.5625 L 7.453125 -5.359375 C 7.359375 -5.523438 7.25 -5.648438 7.125 -5.734375 C 7 -5.816406 6.789062 -5.859375 6.5 -5.859375 L 5.46875 -5.859375 L 5 -2.046875 C 5.070312 -2.035156 5.175781 -2.019531 5.3125 -2 C 5.445312 -1.976562 5.535156 -1.960938 5.578125 -1.953125 C 5.628906 -1.941406 5.691406 -1.925781 5.765625 -1.90625 C 5.835938 -1.882812 5.882812 -1.875 5.90625 -1.875 C 5.925781 -1.875 5.953125 -1.875 5.984375 -1.875 L 6.03125 -1.859375 C 6.351562 -1.773438 6.492188 -1.5625 6.453125 -1.21875 L 6.3125 0 L 0.390625 0 L 0.53125 -1.21875 C 0.570312 -1.5625 0.773438 -1.773438 1.140625 -1.859375 C 1.179688 -1.859375 1.222656 -1.863281 1.265625 -1.875 C 1.347656 -1.90625 1.457031 -1.929688 1.59375 -1.953125 C 1.632812 -1.960938 1.722656 -1.976562 1.859375 -2 C 1.992188 -2.019531 2.113281 -2.035156 2.21875 -2.046875 L 3.53125 -12.921875 C 3.457031 -12.929688 3.351562 -12.945312 3.21875 -12.96875 C 3.082031 -13 2.988281 -13.015625 2.9375 -13.015625 C 2.894531 -13.023438 2.835938 -13.035156 2.765625 -13.046875 C 2.703125 -13.066406 2.664062 -13.078125 2.65625 -13.078125 C 2.625 -13.078125 2.59375 -13.082031 2.5625 -13.09375 L 2.53125 -13.09375 C 2.195312 -13.175781 2.050781 -13.394531 2.09375 -13.75 L 2.234375 -14.96875 L 8.21875 -14.96875 C 9.207031 -14.96875 10.070312 -14.863281 10.8125 -14.65625 C 11.476562 -14.457031 12.035156 -14.160156 12.484375 -13.765625 C 12.898438 -13.390625 13.179688 -12.9375 13.328125 -12.40625 C 13.484375 -11.832031 13.523438 -11.253906 13.453125 -10.671875 C 13.390625 -10.160156 13.257812 -9.679688 13.0625 -9.234375 C 12.875 -8.828125 12.601562 -8.421875 12.25 -8.015625 C 11.914062 -7.640625 11.539062 -7.316406 11.125 -7.046875 C 10.707031 -6.785156 10.207031 -6.570312 9.625 -6.40625 C 9.957031 -6.195312 10.226562 -5.90625 10.4375 -5.53125 L 12.359375 -2.046875 C 12.410156 -2.046875 12.507812 -2.03125 12.65625 -2 C 12.8125 -1.976562 12.921875 -1.960938 12.984375 -1.953125 C 13.035156 -1.941406 13.101562 -1.925781 13.1875 -1.90625 C 13.269531 -1.882812 13.328125 -1.875 13.359375 -1.875 C 13.390625 -1.875 13.414062 -1.875 13.4375 -1.875 Z M 8.6875 -8.0625 C 9.070312 -8.175781 9.421875 -8.351562 9.734375 -8.59375 C 9.992188 -8.789062 10.210938 -9.066406 10.390625 -9.421875 C 10.554688 -9.753906 10.660156 -10.097656 10.703125 -10.453125 C 10.785156 -11.222656 10.609375 -11.8125 10.171875 -12.21875 C 9.722656 -12.613281 8.984375 -12.8125 7.953125 -12.8125 L 6.3125 -12.8125 L 5.71875 -7.84375 L 7.3125 -7.84375 C 7.75 -7.84375 8.207031 -7.914062 8.6875 -8.0625 Z M 8.6875 -8.0625 " />
            </g>
        </g>
    </g>
    <g fill="#000000" fill-opacity="1">
        <g transform="translate(101.124073, 291.749923)">
            <g>
                <path
                    d="M 16.25 -1.59375 C 16.5 -1.5 16.613281 -1.316406 16.59375 -1.046875 L 16.453125 0 L 11.40625 0 L 11.53125 -1.046875 C 11.550781 -1.296875 11.710938 -1.476562 12.015625 -1.59375 C 12.191406 -1.65625 12.332031 -1.710938 12.4375 -1.765625 L 12.40625 -1.984375 L 11.90625 -4.015625 L 5.9375 -4.015625 L 4.90625 -1.875 L 4.84375 -1.765625 C 4.925781 -1.722656 5.007812 -1.679688 5.09375 -1.640625 L 5.234375 -1.59375 C 5.492188 -1.476562 5.613281 -1.296875 5.59375 -1.046875 L 5.453125 0 L 0.390625 0 L 0.515625 -1.046875 C 0.535156 -1.296875 0.691406 -1.476562 0.984375 -1.59375 C 1.015625 -1.601562 1.414062 -1.765625 2.1875 -2.078125 L 8.828125 -14.96875 L 11.703125 -14.96875 L 15.171875 -2.078125 C 15.835938 -1.773438 16.195312 -1.613281 16.25 -1.59375 Z M 9.171875 -10.625 L 6.890625 -5.984375 L 11.421875 -5.984375 L 10.3125 -10.625 C 10.207031 -11.007812 10.144531 -11.269531 10.125 -11.40625 C 10.0625 -11.664062 10 -11.992188 9.9375 -12.390625 C 9.90625 -12.316406 9.84375 -12.160156 9.75 -11.921875 C 9.65625 -11.691406 9.585938 -11.519531 9.546875 -11.40625 C 9.484375 -11.238281 9.359375 -10.976562 9.171875 -10.625 Z M 9.171875 -10.625 " />
            </g>
        </g>
    </g>
    <g fill="#000000" fill-opacity="1">
        <g transform="translate(118.160869, 291.749923)">
            <g>
                <path
                    d="M 15.78125 -10.515625 C 16.03125 -9.609375 16.082031 -8.597656 15.9375 -7.484375 C 15.789062 -6.359375 15.488281 -5.351562 15.03125 -4.46875 C 14.550781 -3.550781 13.9375 -2.757812 13.1875 -2.09375 C 12.46875 -1.445312 11.613281 -0.9375 10.625 -0.5625 C 9.65625 -0.1875 8.597656 0 7.453125 0 L 0.390625 0 L 0.53125 -1.21875 C 0.570312 -1.5625 0.773438 -1.773438 1.140625 -1.859375 C 1.148438 -1.859375 1.164062 -1.859375 1.1875 -1.859375 C 1.21875 -1.867188 1.242188 -1.875 1.265625 -1.875 C 1.285156 -1.875 1.332031 -1.882812 1.40625 -1.90625 C 1.488281 -1.925781 1.550781 -1.941406 1.59375 -1.953125 C 1.632812 -1.960938 1.722656 -1.976562 1.859375 -2 C 1.992188 -2.019531 2.113281 -2.035156 2.21875 -2.046875 L 3.53125 -12.921875 C 3.457031 -12.929688 3.351562 -12.945312 3.21875 -12.96875 C 3.082031 -13 2.988281 -13.015625 2.9375 -13.015625 C 2.894531 -13.023438 2.835938 -13.035156 2.765625 -13.046875 C 2.703125 -13.066406 2.664062 -13.078125 2.65625 -13.078125 C 2.625 -13.078125 2.59375 -13.082031 2.5625 -13.09375 L 2.53125 -13.09375 C 2.195312 -13.175781 2.050781 -13.394531 2.09375 -13.75 L 2.234375 -14.96875 L 9.296875 -14.96875 C 10.421875 -14.96875 11.429688 -14.78125 12.328125 -14.40625 C 13.242188 -14.019531 13.972656 -13.507812 14.515625 -12.875 C 15.109375 -12.1875 15.53125 -11.398438 15.78125 -10.515625 Z M 12.5 -5.28125 C 12.800781 -5.90625 13 -6.640625 13.09375 -7.484375 C 13.195312 -8.296875 13.179688 -9.03125 13.046875 -9.6875 C 12.890625 -10.34375 12.640625 -10.894531 12.296875 -11.34375 C 11.953125 -11.78125 11.503906 -12.128906 10.953125 -12.390625 C 10.398438 -12.628906 9.757812 -12.75 9.03125 -12.75 L 6.34375 -12.75 L 5.03125 -2.21875 L 7.71875 -2.21875 C 8.457031 -2.21875 9.128906 -2.34375 9.734375 -2.59375 C 10.390625 -2.863281 10.925781 -3.207031 11.34375 -3.625 C 11.820312 -4.101562 12.207031 -4.65625 12.5 -5.28125 Z M 12.5 -5.28125 " />
            </g>
        </g>
    </g>
    <g fill="#000000" fill-opacity="1">
        <g transform="translate(134.601118, 291.749923)">
            <g>
                <path
                    d="M 3.8125 -14.96875 L 13.25 -14.96875 L 13.0625 -13.515625 L 12.953125 -12.75 L 12.75 -11.03125 L 11.578125 -11.03125 C 11.304688 -11.03125 11.160156 -11.160156 11.140625 -11.421875 C 11.140625 -11.429688 11.132812 -11.507812 11.125 -11.65625 C 11.125 -11.800781 11.125 -11.96875 11.125 -12.15625 C 11.125 -12.34375 11.128906 -12.539062 11.140625 -12.75 L 6.34375 -12.75 L 5.8125 -8.609375 L 10.890625 -8.609375 L 10.625 -6.453125 L 5.5625 -6.453125 L 5.03125 -2.234375 L 9.859375 -2.234375 C 9.953125 -2.660156 10.054688 -3.101562 10.171875 -3.5625 C 10.253906 -3.820312 10.429688 -3.953125 10.703125 -3.953125 L 11.890625 -3.953125 L 11.671875 -2.234375 L 11.578125 -1.453125 L 11.40625 0 L 0.390625 0 L 0.53125 -1.21875 C 0.570312 -1.5625 0.773438 -1.773438 1.140625 -1.859375 C 1.148438 -1.859375 1.164062 -1.859375 1.1875 -1.859375 C 1.21875 -1.867188 1.242188 -1.875 1.265625 -1.875 C 1.285156 -1.875 1.332031 -1.882812 1.40625 -1.90625 C 1.488281 -1.925781 1.550781 -1.941406 1.59375 -1.953125 C 1.632812 -1.960938 1.722656 -1.976562 1.859375 -2 C 1.992188 -2.019531 2.113281 -2.035156 2.21875 -2.046875 L 3.53125 -12.921875 C 3.457031 -12.929688 3.351562 -12.945312 3.21875 -12.96875 C 3.082031 -13 2.988281 -13.015625 2.9375 -13.015625 C 2.894531 -13.023438 2.835938 -13.035156 2.765625 -13.046875 C 2.703125 -13.066406 2.664062 -13.078125 2.65625 -13.078125 C 2.625 -13.078125 2.59375 -13.082031 2.5625 -13.09375 L 2.53125 -13.09375 C 2.195312 -13.175781 2.050781 -13.394531 2.09375 -13.75 L 2.234375 -14.96875 Z M 3.8125 -14.96875 " />
            </g>
        </g>
    </g>
    <g fill="#000000" fill-opacity="1">
        <g transform="translate(148.220445, 291.749923)">
            <g>
                <path
                    d="M 13.5 -1.859375 C 13.820312 -1.773438 13.96875 -1.5625 13.9375 -1.21875 L 13.78125 0 L 10.984375 0 C 10.734375 0 10.535156 -0.046875 10.390625 -0.140625 C 10.242188 -0.234375 10.117188 -0.375 10.015625 -0.5625 L 7.453125 -5.359375 C 7.359375 -5.523438 7.25 -5.648438 7.125 -5.734375 C 7 -5.816406 6.789062 -5.859375 6.5 -5.859375 L 5.46875 -5.859375 L 5 -2.046875 C 5.070312 -2.035156 5.175781 -2.019531 5.3125 -2 C 5.445312 -1.976562 5.535156 -1.960938 5.578125 -1.953125 C 5.628906 -1.941406 5.691406 -1.925781 5.765625 -1.90625 C 5.835938 -1.882812 5.882812 -1.875 5.90625 -1.875 C 5.925781 -1.875 5.953125 -1.875 5.984375 -1.875 L 6.03125 -1.859375 C 6.351562 -1.773438 6.492188 -1.5625 6.453125 -1.21875 L 6.3125 0 L 0.390625 0 L 0.53125 -1.21875 C 0.570312 -1.5625 0.773438 -1.773438 1.140625 -1.859375 C 1.179688 -1.859375 1.222656 -1.863281 1.265625 -1.875 C 1.347656 -1.90625 1.457031 -1.929688 1.59375 -1.953125 C 1.632812 -1.960938 1.722656 -1.976562 1.859375 -2 C 1.992188 -2.019531 2.113281 -2.035156 2.21875 -2.046875 L 3.53125 -12.921875 C 3.457031 -12.929688 3.351562 -12.945312 3.21875 -12.96875 C 3.082031 -13 2.988281 -13.015625 2.9375 -13.015625 C 2.894531 -13.023438 2.835938 -13.035156 2.765625 -13.046875 C 2.703125 -13.066406 2.664062 -13.078125 2.65625 -13.078125 C 2.625 -13.078125 2.59375 -13.082031 2.5625 -13.09375 L 2.53125 -13.09375 C 2.195312 -13.175781 2.050781 -13.394531 2.09375 -13.75 L 2.234375 -14.96875 L 8.21875 -14.96875 C 9.207031 -14.96875 10.070312 -14.863281 10.8125 -14.65625 C 11.476562 -14.457031 12.035156 -14.160156 12.484375 -13.765625 C 12.898438 -13.390625 13.179688 -12.9375 13.328125 -12.40625 C 13.484375 -11.832031 13.523438 -11.253906 13.453125 -10.671875 C 13.390625 -10.160156 13.257812 -9.679688 13.0625 -9.234375 C 12.875 -8.828125 12.601562 -8.421875 12.25 -8.015625 C 11.914062 -7.640625 11.539062 -7.316406 11.125 -7.046875 C 10.707031 -6.785156 10.207031 -6.570312 9.625 -6.40625 C 9.957031 -6.195312 10.226562 -5.90625 10.4375 -5.53125 L 12.359375 -2.046875 C 12.410156 -2.046875 12.507812 -2.03125 12.65625 -2 C 12.8125 -1.976562 12.921875 -1.960938 12.984375 -1.953125 C 13.035156 -1.941406 13.101562 -1.925781 13.1875 -1.90625 C 13.269531 -1.882812 13.328125 -1.875 13.359375 -1.875 C 13.390625 -1.875 13.414062 -1.875 13.4375 -1.875 Z M 8.6875 -8.0625 C 9.070312 -8.175781 9.421875 -8.351562 9.734375 -8.59375 C 9.992188 -8.789062 10.210938 -9.066406 10.390625 -9.421875 C 10.554688 -9.753906 10.660156 -10.097656 10.703125 -10.453125 C 10.785156 -11.222656 10.609375 -11.8125 10.171875 -12.21875 C 9.722656 -12.613281 8.984375 -12.8125 7.953125 -12.8125 L 6.3125 -12.8125 L 5.71875 -7.84375 L 7.3125 -7.84375 C 7.75 -7.84375 8.207031 -7.914062 8.6875 -8.0625 Z M 8.6875 -8.0625 " />
            </g>
        </g>
    </g>
    <g fill="#000000" fill-opacity="1">
        <g transform="translate(162.587975, 291.749923)">
            <g>
                <path
                    d="M 10.609375 -6.28125 C 10.753906 -5.820312 10.785156 -5.289062 10.703125 -4.6875 C 10.628906 -4.050781 10.425781 -3.421875 10.09375 -2.796875 C 9.769531 -2.171875 9.375 -1.65625 8.90625 -1.25 C 8.382812 -0.789062 7.796875 -0.441406 7.140625 -0.203125 C 6.503906 0.0351562 5.757812 0.15625 4.90625 0.15625 L 4.59375 0.15625 C 3.269531 0.15625 1.867188 -0.0976562 0.390625 -0.609375 L 0.4375 -0.984375 L 0.875 -4.46875 L 2.046875 -4.46875 C 2.316406 -4.46875 2.460938 -4.347656 2.484375 -4.109375 C 2.484375 -3.597656 2.476562 -3.023438 2.46875 -2.390625 C 3.050781 -2.203125 3.976562 -2.109375 5.25 -2.109375 C 6.070312 -2.109375 6.71875 -2.296875 7.1875 -2.671875 C 7.675781 -3.054688 7.957031 -3.59375 8.03125 -4.28125 C 8.070312 -4.664062 8.007812 -4.988281 7.84375 -5.25 C 7.675781 -5.519531 7.441406 -5.734375 7.140625 -5.890625 C 6.796875 -6.054688 6.441406 -6.195312 6.078125 -6.3125 C 5.484375 -6.488281 5.078125 -6.613281 4.859375 -6.6875 C 4.523438 -6.800781 4.125 -6.96875 3.65625 -7.1875 C 3.300781 -7.351562 2.96875 -7.609375 2.65625 -7.953125 C 2.382812 -8.234375 2.175781 -8.617188 2.03125 -9.109375 C 1.882812 -9.597656 1.847656 -10.171875 1.921875 -10.828125 C 1.984375 -11.359375 2.164062 -11.890625 2.46875 -12.421875 C 2.800781 -13.003906 3.171875 -13.46875 3.578125 -13.8125 C 4.023438 -14.175781 4.578125 -14.492188 5.234375 -14.765625 C 5.859375 -15.015625 6.5625 -15.140625 7.34375 -15.140625 C 8.800781 -15.140625 10.203125 -14.851562 11.546875 -14.28125 L 11.078125 -10.453125 L 9.890625 -10.453125 C 9.628906 -10.453125 9.488281 -10.582031 9.46875 -10.84375 C 9.46875 -11.34375 9.472656 -11.90625 9.484375 -12.53125 C 9.015625 -12.75 8.226562 -12.859375 7.125 -12.859375 C 6.726562 -12.859375 6.378906 -12.816406 6.078125 -12.734375 C 5.753906 -12.617188 5.5 -12.488281 5.3125 -12.34375 C 5.082031 -12.15625 4.910156 -11.953125 4.796875 -11.734375 C 4.679688 -11.503906 4.601562 -11.25 4.5625 -10.96875 C 4.519531 -10.613281 4.578125 -10.320312 4.734375 -10.09375 C 4.898438 -9.863281 5.144531 -9.664062 5.46875 -9.5 C 5.90625 -9.269531 6.25 -9.117188 6.5 -9.046875 C 6.5625 -9.023438 6.96875 -8.890625 7.71875 -8.640625 C 7.945312 -8.554688 8.347656 -8.382812 8.921875 -8.125 C 9.285156 -7.945312 9.625 -7.695312 9.9375 -7.375 C 10.25 -7.03125 10.472656 -6.664062 10.609375 -6.28125 Z M 10.609375 -6.28125 " />
            </g>
        </g>
    </g>
    <g fill="#000000" fill-opacity="1">
        <g transform="translate(174.508678, 291.749923)">
            <g />
        </g>
    </g>
    <g fill="#000000" fill-opacity="1">
        <g transform="translate(179.291118, 291.749923)">
            <g>
                <path
                    d="M 8.015625 -15.140625 C 8.617188 -15.140625 9.148438 -15.046875 9.609375 -14.859375 C 10.054688 -14.679688 10.4375 -14.4375 10.75 -14.125 C 11.019531 -13.84375 11.234375 -13.476562 11.390625 -13.03125 C 11.554688 -12.59375 11.628906 -12.179688 11.609375 -11.796875 L 9.9375 -11.46875 C 9.925781 -11.46875 9.914062 -11.460938 9.90625 -11.453125 C 9.894531 -11.453125 9.882812 -11.453125 9.875 -11.453125 L 9.8125 -11.453125 C 9.695312 -11.453125 9.59375 -11.484375 9.5 -11.546875 C 9.414062 -11.609375 9.359375 -11.71875 9.328125 -11.875 C 9.285156 -12.050781 9.226562 -12.210938 9.15625 -12.359375 C 9.070312 -12.523438 8.960938 -12.671875 8.828125 -12.796875 C 8.734375 -12.890625 8.582031 -12.984375 8.375 -13.078125 C 8.207031 -13.148438 8.003906 -13.1875 7.765625 -13.1875 C 7.492188 -13.1875 7.226562 -13.140625 6.96875 -13.046875 C 6.757812 -12.960938 6.550781 -12.820312 6.34375 -12.625 C 6.132812 -12.445312 5.988281 -12.253906 5.90625 -12.046875 C 5.78125 -11.753906 5.707031 -11.519531 5.6875 -11.34375 C 5.664062 -11.132812 5.664062 -10.9375 5.6875 -10.75 C 5.71875 -10.476562 5.757812 -10.285156 5.8125 -10.171875 C 5.90625 -9.953125 6.007812 -9.75 6.125 -9.5625 C 6.238281 -9.375 6.40625 -9.15625 6.625 -8.90625 L 10.09375 -4.78125 C 10.320312 -5.113281 10.5625 -5.566406 10.8125 -6.140625 C 11 -6.609375 11.148438 -7.101562 11.265625 -7.625 C 11.296875 -7.757812 11.363281 -7.878906 11.46875 -7.984375 C 11.582031 -8.097656 11.71875 -8.15625 11.875 -8.15625 L 13.453125 -8.15625 C 13.328125 -7.21875 13.09375 -6.347656 12.75 -5.546875 C 12.425781 -4.796875 11.960938 -4.03125 11.359375 -3.25 L 14.109375 0 L 11.59375 0 C 11.4375 0 11.328125 -0.00390625 11.265625 -0.015625 C 11.109375 -0.046875 11.007812 -0.0703125 10.96875 -0.09375 C 10.925781 -0.113281 10.851562 -0.164062 10.75 -0.25 C 10.6875 -0.300781 10.609375 -0.382812 10.515625 -0.5 L 9.609375 -1.5625 C 8.890625 -1.03125 8.101562 -0.609375 7.25 -0.296875 C 6.425781 0.00390625 5.53125 0.15625 4.5625 0.15625 C 3.957031 0.15625 3.40625 0.0625 2.90625 -0.125 C 2.382812 -0.320312 1.921875 -0.609375 1.515625 -0.984375 C 1.109375 -1.367188 0.804688 -1.816406 0.609375 -2.328125 C 0.421875 -2.835938 0.367188 -3.4375 0.453125 -4.125 C 0.515625 -4.59375 0.644531 -5.035156 0.84375 -5.453125 C 1.050781 -5.867188 1.3125 -6.25 1.625 -6.59375 C 1.96875 -7 2.320312 -7.328125 2.6875 -7.578125 C 3.125 -7.878906 3.5625 -8.125 4 -8.3125 C 3.6875 -8.820312 3.476562 -9.332031 3.375 -9.84375 C 3.269531 -10.332031 3.25 -10.816406 3.3125 -11.296875 C 3.382812 -11.867188 3.535156 -12.367188 3.765625 -12.796875 C 3.992188 -13.222656 4.328125 -13.617188 4.765625 -13.984375 C 5.179688 -14.347656 5.65625 -14.625 6.1875 -14.8125 C 6.757812 -15.03125 7.367188 -15.140625 8.015625 -15.140625 Z M 3.0625 -4.328125 C 3.019531 -3.953125 3.046875 -3.613281 3.140625 -3.3125 C 3.253906 -2.96875 3.398438 -2.707031 3.578125 -2.53125 C 3.765625 -2.34375 4.015625 -2.179688 4.328125 -2.046875 C 4.597656 -1.929688 4.90625 -1.875 5.25 -1.875 C 5.875 -1.875 6.441406 -1.96875 6.953125 -2.15625 C 7.429688 -2.320312 7.925781 -2.59375 8.4375 -2.96875 L 5 -7 C 4.394531 -6.632812 3.9375 -6.222656 3.625 -5.765625 C 3.3125 -5.316406 3.125 -4.835938 3.0625 -4.328125 Z M 3.0625 -4.328125 " />
            </g>
        </g>
    </g>
    <g fill="#000000" fill-opacity="1">
        <g transform="translate(193.8002, 291.749923)">
            <g />
        </g>
    </g>
    <g fill="#000000" fill-opacity="1">
        <g transform="translate(198.58264, 291.749923)">
            <g>
                <path
                    d="M 20.84375 -13.09375 L 20.796875 -13.09375 C 20.773438 -13.082031 20.75 -13.078125 20.71875 -13.078125 C 20.695312 -13.078125 20.648438 -13.066406 20.578125 -13.046875 C 20.515625 -13.035156 20.457031 -13.023438 20.40625 -13.015625 C 20.363281 -13.015625 20.269531 -13 20.125 -12.96875 C 19.988281 -12.945312 19.867188 -12.929688 19.765625 -12.921875 L 18.453125 -2.046875 C 18.523438 -2.035156 18.628906 -2.019531 18.765625 -2 C 18.898438 -1.976562 18.988281 -1.960938 19.03125 -1.953125 C 19.082031 -1.941406 19.140625 -1.925781 19.203125 -1.90625 C 19.273438 -1.882812 19.320312 -1.875 19.34375 -1.875 C 19.363281 -1.875 19.390625 -1.867188 19.421875 -1.859375 C 19.453125 -1.859375 19.472656 -1.859375 19.484375 -1.859375 C 19.804688 -1.773438 19.953125 -1.5625 19.921875 -1.21875 L 19.75 0 L 13.875 0 L 14.015625 -1.21875 C 14.054688 -1.5625 14.257812 -1.773438 14.625 -1.859375 C 14.632812 -1.859375 14.679688 -1.863281 14.765625 -1.875 C 14.859375 -1.894531 15.023438 -1.921875 15.265625 -1.953125 C 15.503906 -1.984375 15.742188 -2.015625 15.984375 -2.046875 L 16.9375 -9.671875 C 16.96875 -9.941406 16.992188 -10.132812 17.015625 -10.25 L 17.140625 -10.90625 L 11.578125 -2.421875 C 11.429688 -2.210938 11.28125 -2.0625 11.125 -1.96875 C 10.914062 -1.851562 10.710938 -1.796875 10.515625 -1.796875 L 10.125 -1.796875 C 9.914062 -1.796875 9.726562 -1.851562 9.5625 -1.96875 C 9.4375 -2.0625 9.328125 -2.210938 9.234375 -2.421875 L 5.6875 -10.921875 C 5.6875 -10.796875 5.675781 -10.578125 5.65625 -10.265625 C 5.644531 -10.203125 5.632812 -10.097656 5.625 -9.953125 C 5.625 -9.816406 5.617188 -9.722656 5.609375 -9.671875 L 4.65625 -2.046875 C 4.882812 -2.015625 5.113281 -1.984375 5.34375 -1.953125 C 5.570312 -1.921875 5.734375 -1.894531 5.828125 -1.875 C 5.921875 -1.863281 5.972656 -1.859375 5.984375 -1.859375 C 6.328125 -1.773438 6.476562 -1.5625 6.4375 -1.21875 L 6.28125 0 L 0.390625 0 L 0.53125 -1.21875 C 0.570312 -1.5625 0.773438 -1.773438 1.140625 -1.859375 C 1.148438 -1.859375 1.164062 -1.859375 1.1875 -1.859375 C 1.21875 -1.867188 1.242188 -1.875 1.265625 -1.875 C 1.347656 -1.90625 1.457031 -1.929688 1.59375 -1.953125 C 1.632812 -1.960938 1.722656 -1.976562 1.859375 -2 C 1.992188 -2.019531 2.113281 -2.035156 2.21875 -2.046875 L 3.53125 -12.921875 C 3.457031 -12.929688 3.351562 -12.945312 3.21875 -12.96875 C 3.082031 -13 2.988281 -13.015625 2.9375 -13.015625 C 2.894531 -13.023438 2.835938 -13.035156 2.765625 -13.046875 C 2.703125 -13.066406 2.664062 -13.078125 2.65625 -13.078125 C 2.613281 -13.085938 2.570312 -13.09375 2.53125 -13.09375 C 2.195312 -13.175781 2.050781 -13.394531 2.09375 -13.75 L 2.234375 -14.96875 L 5.90625 -14.96875 C 5.945312 -14.96875 6 -14.960938 6.0625 -14.953125 C 6.132812 -14.953125 6.179688 -14.953125 6.203125 -14.953125 C 6.296875 -14.953125 6.378906 -14.9375 6.453125 -14.90625 C 6.484375 -14.90625 6.546875 -14.859375 6.640625 -14.765625 C 6.703125 -14.703125 6.753906 -14.617188 6.796875 -14.515625 L 10.25 -6.203125 C 10.375 -5.859375 10.445312 -5.632812 10.46875 -5.53125 C 10.488281 -5.457031 10.523438 -5.335938 10.578125 -5.171875 C 10.628906 -5.015625 10.664062 -4.890625 10.6875 -4.796875 C 10.789062 -5.003906 10.921875 -5.253906 11.078125 -5.546875 C 11.109375 -5.617188 11.144531 -5.691406 11.1875 -5.765625 C 11.238281 -5.847656 11.289062 -5.929688 11.34375 -6.015625 C 11.40625 -6.097656 11.457031 -6.171875 11.5 -6.234375 L 16.9375 -14.515625 C 16.96875 -14.566406 17.035156 -14.648438 17.140625 -14.765625 C 17.234375 -14.847656 17.300781 -14.894531 17.34375 -14.90625 C 17.457031 -14.9375 17.539062 -14.953125 17.59375 -14.953125 C 17.613281 -14.953125 17.664062 -14.953125 17.75 -14.953125 C 17.832031 -14.960938 17.894531 -14.96875 17.9375 -14.96875 L 21.59375 -14.96875 L 21.453125 -13.75 C 21.410156 -13.394531 21.207031 -13.175781 20.84375 -13.09375 Z M 20.84375 -13.09375 " />
            </g>
        </g>
    </g>
    <g fill="#000000" fill-opacity="1">
        <g transform="translate(220.563637, 291.749923)">
            <g>
                <path
                    d="M 15.65625 -7.484375 C 15.5 -6.347656 15.191406 -5.328125 14.734375 -4.421875 C 14.273438 -3.515625 13.664062 -2.710938 12.90625 -2.015625 C 12.15625 -1.328125 11.289062 -0.796875 10.3125 -0.421875 C 9.3125 -0.0351562 8.253906 0.15625 7.140625 0.15625 C 6.046875 0.15625 5.039062 -0.0351562 4.125 -0.421875 C 3.21875 -0.796875 2.476562 -1.328125 1.90625 -2.015625 C 1.332031 -2.691406 0.921875 -3.492188 0.671875 -4.421875 C 0.398438 -5.398438 0.332031 -6.421875 0.46875 -7.484375 C 0.613281 -8.578125 0.925781 -9.59375 1.40625 -10.53125 C 1.875 -11.4375 2.488281 -12.242188 3.25 -12.953125 C 3.988281 -13.640625 4.859375 -14.175781 5.859375 -14.5625 C 6.859375 -14.945312 7.914062 -15.140625 9.03125 -15.140625 C 10.175781 -15.140625 11.179688 -14.945312 12.046875 -14.5625 C 12.960938 -14.15625 13.695312 -13.617188 14.25 -12.953125 C 14.820312 -12.265625 15.234375 -11.457031 15.484375 -10.53125 C 15.734375 -9.613281 15.789062 -8.597656 15.65625 -7.484375 Z M 12.796875 -7.484375 C 12.898438 -8.335938 12.882812 -9.070312 12.75 -9.6875 C 12.613281 -10.34375 12.367188 -10.898438 12.015625 -11.359375 C 11.671875 -11.804688 11.222656 -12.15625 10.671875 -12.40625 C 10.117188 -12.65625 9.472656 -12.78125 8.734375 -12.78125 C 7.992188 -12.78125 7.320312 -12.65625 6.71875 -12.40625 C 6.09375 -12.144531 5.550781 -11.796875 5.09375 -11.359375 C 4.644531 -10.929688 4.257812 -10.375 3.9375 -9.6875 C 3.632812 -9.050781 3.4375 -8.316406 3.34375 -7.484375 C 3.238281 -6.671875 3.253906 -5.9375 3.390625 -5.28125 C 3.523438 -4.632812 3.773438 -4.082031 4.140625 -3.625 C 4.484375 -3.175781 4.941406 -2.820312 5.515625 -2.5625 C 6.023438 -2.332031 6.664062 -2.21875 7.4375 -2.21875 C 8.21875 -2.21875 8.894531 -2.332031 9.46875 -2.5625 C 10.082031 -2.820312 10.613281 -3.175781 11.0625 -3.625 C 11.5625 -4.125 11.945312 -4.675781 12.21875 -5.28125 C 12.5 -5.945312 12.691406 -6.679688 12.796875 -7.484375 Z M 12.796875 -7.484375 " />
            </g>
        </g>
    </g>
    <g fill="#000000" fill-opacity="1">
        <g transform="translate(236.710677, 291.749923)">
            <g>
                <path
                    d="M 12.921875 -14.96875 L 13.25 -14.96875 L 12.8125 -11.421875 L 11.640625 -11.421875 C 11.367188 -11.421875 11.222656 -11.550781 11.203125 -11.8125 L 11.203125 -12.6875 L 8.140625 -12.6875 L 6.828125 -2.046875 C 6.910156 -2.035156 7.019531 -2.019531 7.15625 -2 C 7.289062 -1.976562 7.378906 -1.960938 7.421875 -1.953125 C 7.472656 -1.941406 7.535156 -1.925781 7.609375 -1.90625 C 7.679688 -1.882812 7.726562 -1.875 7.75 -1.875 C 7.769531 -1.875 7.796875 -1.875 7.828125 -1.875 L 7.859375 -1.859375 C 8.191406 -1.773438 8.335938 -1.5625 8.296875 -1.21875 L 8.15625 0 L 2.234375 0 L 2.390625 -1.21875 C 2.429688 -1.5625 2.628906 -1.773438 2.984375 -1.859375 C 2.992188 -1.859375 3.007812 -1.859375 3.03125 -1.859375 C 3.0625 -1.867188 3.085938 -1.875 3.109375 -1.875 C 3.128906 -1.875 3.175781 -1.882812 3.25 -1.90625 C 3.320312 -1.925781 3.382812 -1.941406 3.4375 -1.953125 C 3.476562 -1.960938 3.566406 -1.976562 3.703125 -2 C 3.835938 -2.019531 3.953125 -2.035156 4.046875 -2.046875 L 5.359375 -12.6875 L 2.296875 -12.6875 C 2.179688 -12.15625 2.113281 -11.863281 2.09375 -11.8125 C 2.007812 -11.550781 1.835938 -11.421875 1.578125 -11.421875 L 0.375 -11.421875 L 0.8125 -14.96875 Z M 12.921875 -14.96875 " />
            </g>
        </g>
    </g>
    <g fill="#000000" fill-opacity="1">
        <g transform="translate(250.350226, 291.749923)">
            <g>
                <path
                    d="M 15.65625 -7.484375 C 15.5 -6.347656 15.191406 -5.328125 14.734375 -4.421875 C 14.273438 -3.515625 13.664062 -2.710938 12.90625 -2.015625 C 12.15625 -1.328125 11.289062 -0.796875 10.3125 -0.421875 C 9.3125 -0.0351562 8.253906 0.15625 7.140625 0.15625 C 6.046875 0.15625 5.039062 -0.0351562 4.125 -0.421875 C 3.21875 -0.796875 2.476562 -1.328125 1.90625 -2.015625 C 1.332031 -2.691406 0.921875 -3.492188 0.671875 -4.421875 C 0.398438 -5.398438 0.332031 -6.421875 0.46875 -7.484375 C 0.613281 -8.578125 0.925781 -9.59375 1.40625 -10.53125 C 1.875 -11.4375 2.488281 -12.242188 3.25 -12.953125 C 3.988281 -13.640625 4.859375 -14.175781 5.859375 -14.5625 C 6.859375 -14.945312 7.914062 -15.140625 9.03125 -15.140625 C 10.175781 -15.140625 11.179688 -14.945312 12.046875 -14.5625 C 12.960938 -14.15625 13.695312 -13.617188 14.25 -12.953125 C 14.820312 -12.265625 15.234375 -11.457031 15.484375 -10.53125 C 15.734375 -9.613281 15.789062 -8.597656 15.65625 -7.484375 Z M 12.796875 -7.484375 C 12.898438 -8.335938 12.882812 -9.070312 12.75 -9.6875 C 12.613281 -10.34375 12.367188 -10.898438 12.015625 -11.359375 C 11.671875 -11.804688 11.222656 -12.15625 10.671875 -12.40625 C 10.117188 -12.65625 9.472656 -12.78125 8.734375 -12.78125 C 7.992188 -12.78125 7.320312 -12.65625 6.71875 -12.40625 C 6.09375 -12.144531 5.550781 -11.796875 5.09375 -11.359375 C 4.644531 -10.929688 4.257812 -10.375 3.9375 -9.6875 C 3.632812 -9.050781 3.4375 -8.316406 3.34375 -7.484375 C 3.238281 -6.671875 3.253906 -5.9375 3.390625 -5.28125 C 3.523438 -4.632812 3.773438 -4.082031 4.140625 -3.625 C 4.484375 -3.175781 4.941406 -2.820312 5.515625 -2.5625 C 6.023438 -2.332031 6.664062 -2.21875 7.4375 -2.21875 C 8.21875 -2.21875 8.894531 -2.332031 9.46875 -2.5625 C 10.082031 -2.820312 10.613281 -3.175781 11.0625 -3.625 C 11.5625 -4.125 11.945312 -4.675781 12.21875 -5.28125 C 12.5 -5.945312 12.691406 -6.679688 12.796875 -7.484375 Z M 12.796875 -7.484375 " />
            </g>
        </g>
    </g>
    <g fill="#000000" fill-opacity="1">
        <g transform="translate(266.497278, 291.749923)">
            <g>
                <path
                    d="M 13.5 -1.859375 C 13.820312 -1.773438 13.96875 -1.5625 13.9375 -1.21875 L 13.78125 0 L 10.984375 0 C 10.734375 0 10.535156 -0.046875 10.390625 -0.140625 C 10.242188 -0.234375 10.117188 -0.375 10.015625 -0.5625 L 7.453125 -5.359375 C 7.359375 -5.523438 7.25 -5.648438 7.125 -5.734375 C 7 -5.816406 6.789062 -5.859375 6.5 -5.859375 L 5.46875 -5.859375 L 5 -2.046875 C 5.070312 -2.035156 5.175781 -2.019531 5.3125 -2 C 5.445312 -1.976562 5.535156 -1.960938 5.578125 -1.953125 C 5.628906 -1.941406 5.691406 -1.925781 5.765625 -1.90625 C 5.835938 -1.882812 5.882812 -1.875 5.90625 -1.875 C 5.925781 -1.875 5.953125 -1.875 5.984375 -1.875 L 6.03125 -1.859375 C 6.351562 -1.773438 6.492188 -1.5625 6.453125 -1.21875 L 6.3125 0 L 0.390625 0 L 0.53125 -1.21875 C 0.570312 -1.5625 0.773438 -1.773438 1.140625 -1.859375 C 1.179688 -1.859375 1.222656 -1.863281 1.265625 -1.875 C 1.347656 -1.90625 1.457031 -1.929688 1.59375 -1.953125 C 1.632812 -1.960938 1.722656 -1.976562 1.859375 -2 C 1.992188 -2.019531 2.113281 -2.035156 2.21875 -2.046875 L 3.53125 -12.921875 C 3.457031 -12.929688 3.351562 -12.945312 3.21875 -12.96875 C 3.082031 -13 2.988281 -13.015625 2.9375 -13.015625 C 2.894531 -13.023438 2.835938 -13.035156 2.765625 -13.046875 C 2.703125 -13.066406 2.664062 -13.078125 2.65625 -13.078125 C 2.625 -13.078125 2.59375 -13.082031 2.5625 -13.09375 L 2.53125 -13.09375 C 2.195312 -13.175781 2.050781 -13.394531 2.09375 -13.75 L 2.234375 -14.96875 L 8.21875 -14.96875 C 9.207031 -14.96875 10.070312 -14.863281 10.8125 -14.65625 C 11.476562 -14.457031 12.035156 -14.160156 12.484375 -13.765625 C 12.898438 -13.390625 13.179688 -12.9375 13.328125 -12.40625 C 13.484375 -11.832031 13.523438 -11.253906 13.453125 -10.671875 C 13.390625 -10.160156 13.257812 -9.679688 13.0625 -9.234375 C 12.875 -8.828125 12.601562 -8.421875 12.25 -8.015625 C 11.914062 -7.640625 11.539062 -7.316406 11.125 -7.046875 C 10.707031 -6.785156 10.207031 -6.570312 9.625 -6.40625 C 9.957031 -6.195312 10.226562 -5.90625 10.4375 -5.53125 L 12.359375 -2.046875 C 12.410156 -2.046875 12.507812 -2.03125 12.65625 -2 C 12.8125 -1.976562 12.921875 -1.960938 12.984375 -1.953125 C 13.035156 -1.941406 13.101562 -1.925781 13.1875 -1.90625 C 13.269531 -1.882812 13.328125 -1.875 13.359375 -1.875 C 13.390625 -1.875 13.414062 -1.875 13.4375 -1.875 Z M 8.6875 -8.0625 C 9.070312 -8.175781 9.421875 -8.351562 9.734375 -8.59375 C 9.992188 -8.789062 10.210938 -9.066406 10.390625 -9.421875 C 10.554688 -9.753906 10.660156 -10.097656 10.703125 -10.453125 C 10.785156 -11.222656 10.609375 -11.8125 10.171875 -12.21875 C 9.722656 -12.613281 8.984375 -12.8125 7.953125 -12.8125 L 6.3125 -12.8125 L 5.71875 -7.84375 L 7.3125 -7.84375 C 7.75 -7.84375 8.207031 -7.914062 8.6875 -8.0625 Z M 8.6875 -8.0625 " />
            </g>
        </g>
    </g>
    <g fill="#000000" fill-opacity="1">
        <g transform="translate(280.864808, 291.749923)">
            <g>
                <path
                    d="M 10.609375 -6.28125 C 10.753906 -5.820312 10.785156 -5.289062 10.703125 -4.6875 C 10.628906 -4.050781 10.425781 -3.421875 10.09375 -2.796875 C 9.769531 -2.171875 9.375 -1.65625 8.90625 -1.25 C 8.382812 -0.789062 7.796875 -0.441406 7.140625 -0.203125 C 6.503906 0.0351562 5.757812 0.15625 4.90625 0.15625 L 4.59375 0.15625 C 3.269531 0.15625 1.867188 -0.0976562 0.390625 -0.609375 L 0.4375 -0.984375 L 0.875 -4.46875 L 2.046875 -4.46875 C 2.316406 -4.46875 2.460938 -4.347656 2.484375 -4.109375 C 2.484375 -3.597656 2.476562 -3.023438 2.46875 -2.390625 C 3.050781 -2.203125 3.976562 -2.109375 5.25 -2.109375 C 6.070312 -2.109375 6.71875 -2.296875 7.1875 -2.671875 C 7.675781 -3.054688 7.957031 -3.59375 8.03125 -4.28125 C 8.070312 -4.664062 8.007812 -4.988281 7.84375 -5.25 C 7.675781 -5.519531 7.441406 -5.734375 7.140625 -5.890625 C 6.796875 -6.054688 6.441406 -6.195312 6.078125 -6.3125 C 5.484375 -6.488281 5.078125 -6.613281 4.859375 -6.6875 C 4.523438 -6.800781 4.125 -6.96875 3.65625 -7.1875 C 3.300781 -7.351562 2.96875 -7.609375 2.65625 -7.953125 C 2.382812 -8.234375 2.175781 -8.617188 2.03125 -9.109375 C 1.882812 -9.597656 1.847656 -10.171875 1.921875 -10.828125 C 1.984375 -11.359375 2.164062 -11.890625 2.46875 -12.421875 C 2.800781 -13.003906 3.171875 -13.46875 3.578125 -13.8125 C 4.023438 -14.175781 4.578125 -14.492188 5.234375 -14.765625 C 5.859375 -15.015625 6.5625 -15.140625 7.34375 -15.140625 C 8.800781 -15.140625 10.203125 -14.851562 11.546875 -14.28125 L 11.078125 -10.453125 L 9.890625 -10.453125 C 9.628906 -10.453125 9.488281 -10.582031 9.46875 -10.84375 C 9.46875 -11.34375 9.472656 -11.90625 9.484375 -12.53125 C 9.015625 -12.75 8.226562 -12.859375 7.125 -12.859375 C 6.726562 -12.859375 6.378906 -12.816406 6.078125 -12.734375 C 5.753906 -12.617188 5.5 -12.488281 5.3125 -12.34375 C 5.082031 -12.15625 4.910156 -11.953125 4.796875 -11.734375 C 4.679688 -11.503906 4.601562 -11.25 4.5625 -10.96875 C 4.519531 -10.613281 4.578125 -10.320312 4.734375 -10.09375 C 4.898438 -9.863281 5.144531 -9.664062 5.46875 -9.5 C 5.90625 -9.269531 6.25 -9.117188 6.5 -9.046875 C 6.5625 -9.023438 6.96875 -8.890625 7.71875 -8.640625 C 7.945312 -8.554688 8.347656 -8.382812 8.921875 -8.125 C 9.285156 -7.945312 9.625 -7.695312 9.9375 -7.375 C 10.25 -7.03125 10.472656 -6.664062 10.609375 -6.28125 Z M 10.609375 -6.28125 " />
            </g>
        </g>
    </g>
    <path stroke-linecap="butt" transform="matrix(9.832726, 0, 0, 10.14634, 15.90845, 284.278078)"
        fill="none" stroke-linejoin="miter" d="M 0.000173526 -0.000072379 L 3.967315 -0.000072379 "
        stroke="#fe8000" stroke-width="1" stroke-opacity="1" stroke-miterlimit="4" />
    <path stroke-linecap="butt" transform="matrix(9.832726, 0, 0, 10.14634, 305.345932, 284.278078)"
        fill="none" stroke-linejoin="miter" d="M 0.000175394 -0.000072379 L 3.967316 -0.000072379 "
        stroke="#fe8000" stroke-width="1" stroke-opacity="1" stroke-miterlimit="4" />
</svg>